# xmcd
#
# Track frame offsets:
# 182
# 14965
# 35317
# 53950
# 71460
# 93075
# 116945
# 134660
# 162302
# 179270
# 199180
# 222205
#
# Disc length: 3335 seconds
#
# Revision: 1
# Processed by: cddbd v1.4PL0 Copyright (c) Steve Scherf et al.
# Submitted via: CedeCatalogueitor 2.5 http://usuarios.lycos.es/kakasboy
#
DISCID=b30d050c
DTITLE=La Banda - No Todo Es Seda
DYEAR=1900
DGENRE=
TTITLE0=Si Quieres Progresar Económicamente, Pregúnteme Cómo.
TTITLE1=Las Jigas De Ledu
TTITLE2=Fin De Semana.
TTITLE3=Con Los Pies En La Almohada.
TTITLE4=El Cura
TTITLE5=No Todo Es Seda.
TTITLE6=Que No Te Enteras.
TTITLE7=Adiós A Gibraltar.
TTITLE8=Doña Suerte.
TTITLE9=La Huérfana.
TTITLE10=Espuma De Mar.
TTITLE11=El Cuento Del Brujo Y La Princesita.
EXTD=
EXTT0=
EXTT1=
EXTT2=
EXTT3=
EXTT4=
EXTT5=
EXTT6=
EXTT7=
EXTT8=
EXTT9=
EXTT10=
EXTT11=
PLAYORDER=
